<?xml version="1.0" encoding="iso-8859-1"?>
<!-- Generator: Adobe Illustrator 19.0.0, SVG Export Plug-In . SVG Version: 6.00 Build 0)  -->
<svg version="1.1" id="Layer_1" xmlns="http://www.w3.org/2000/svg" xmlns:xlink="http://www.w3.org/1999/xlink" x="0px" y="0px"
	 viewBox="0 0 344.276 344.276" style="enable-background:new 0 0 344.276 344.276;" xml:space="preserve">
<g id="XMLID_902_">
	<g id="XMLID_903_">
		<path id="XMLID_904_" style="fill:#9FCBA5;" d="M277.04,250.535h-75.674V39.792h75.674c19.566,0,35.485,15.919,35.485,35.485
			v139.771C312.525,234.616,296.606,250.535,277.04,250.535z M231.366,220.535h45.674c3.024,0,5.485-2.461,5.485-5.485V75.278
			c0-3.024-2.461-5.485-5.485-5.485h-45.674L231.366,220.535L231.366,220.535z"/>
	</g>
	<path id="XMLID_909_" style="fill:#2B7B57;" d="M245.566,81.121H234.48c-1.532,0-2.774-1.242-2.774-2.774v-47.11
		c0-1.532,1.242-2.774,2.774-2.774h11.086c7.279,0,13.181,5.901,13.181,13.181V67.94C258.747,75.22,252.846,81.121,245.566,81.121z"
		/>
	<path id="XMLID_912_" style="fill:#2B7B57;" d="M238.822,300.289H50.964V29.45C50.964,13.185,64.149,0,80.414,0h128.958
		c16.265,0,29.45,13.185,29.45,29.45L238.822,300.289L238.822,300.289z"/>
	<rect id="XMLID_913_" x="85.12" y="37.002" style="fill:#9FCBA5;" width="119.546" height="83.967"/>
	<path id="XMLID_916_" style="fill:#9FCBA5;" d="M237.038,315.574H50.498c-10.353,0-18.747-8.393-18.747-18.747v-5.202
		c0-10.353,8.393-18.747,18.747-18.747h185.84c11.983,0,21.698,9.714,21.698,21.698l0,0
		C258.035,306.173,248.634,315.574,237.038,315.574z"/>
	<g id="XMLID_917_">
		<path id="XMLID_17_" style="fill:#49B86E;" d="M282.707,299.543c-27.307,27.307-74.661,26.827-96.743,24.86
			c-7.167-0.639-12.831-6.302-13.47-13.47c-1.967-22.082-2.448-69.436,24.86-96.743s74.661-26.827,96.743-24.86
			c7.167,0.639,12.831,6.302,13.47,13.47C309.534,224.882,310.014,272.236,282.707,299.543z"/>
		<g id="XMLID_918_">
			<path id="XMLID_920_" style="fill:#2B7B57;" d="M156.281,340.615L156.281,340.615c-4.882-4.882-4.882-12.796,0-17.678
				l66.071-66.071c4.882-4.882,12.796-4.882,17.678,0l0,0c4.882,4.882,4.882,12.796,0,17.678l-66.071,66.071
				C169.078,345.496,161.163,345.497,156.281,340.615z"/>
		</g>
	</g>
	<rect id="XMLID_6_" x="85.12" y="130.307" style="fill:#9FCBA5;" width="30.44" height="30.44"/>
	<rect id="XMLID_3_" x="125.841" y="130.307" style="fill:#9FCBA5;" width="30.44" height="30.44"/>
</g>
<g>
</g>
<g>
</g>
<g>
</g>
<g>
</g>
<g>
</g>
<g>
</g>
<g>
</g>
<g>
</g>
<g>
</g>
<g>
</g>
<g>
</g>
<g>
</g>
<g>
</g>
<g>
</g>
<g>
</g>
</svg>
